<?xml version="1.0" standalone="no"?>
<!DOCTYPE svg PUBLIC "-//W3C//DTD SVG 20010904//EN"
 "http://www.w3.org/TR/2001/REC-SVG-20010904/DTD/svg10.dtd">
<svg version="1.0" xmlns="http://www.w3.org/2000/svg"
 width="778.000000pt" height="794.000000pt" viewBox="0 0 778.000000 794.000000"
 preserveAspectRatio="xMidYMid meet">

<g transform="translate(0.000000,794.000000) scale(0.100000,-0.100000)"
fill="#000000" stroke="none">
<path d="M3892 6097 c-6 -7 -17 -31 -24 -52 -9 -28 -20 -41 -38 -45 -28 -7
-35 -37 -7 -32 21 4 21 -6 1 -79 -9 -32 -13 -70 -10 -84 8 -31 47 -48 88 -40
34 8 88 51 88 70 0 28 -23 26 -55 -5 -36 -35 -65 -35 -65 0 0 11 7 47 17 80
16 58 18 60 49 60 42 0 64 9 64 26 0 10 -13 14 -40 14 l-41 0 7 50 c5 41 4 50
-8 50 -9 0 -20 -6 -26 -13z"/>
<path d="M3154 6010 c-18 -7 -23 -27 -43 -162 -13 -84 -25 -155 -27 -157 -5
-5 1 -14 -79 112 -37 59 -73 107 -80 107 -6 0 -19 -6 -28 -12 -16 -12 -15 -23
9 -173 14 -88 30 -165 35 -171 10 -13 46 -8 55 7 2 5 -2 45 -11 90 -8 45 -15
89 -15 98 0 9 23 -19 51 -61 73 -111 92 -105 115 32 8 52 16 96 18 98 3 2 10
-23 16 -55 19 -97 22 -104 37 -110 8 -3 22 1 30 10 16 16 13 35 -43 330 -6 29
-8 30 -40 17z"/>
<path d="M3661 6010 c-41 -10 -85 -41 -89 -64 -6 -29 25 -63 70 -78 45 -15 59
-38 38 -63 -16 -20 -60 -19 -89 1 -20 14 -25 15 -37 2 -13 -12 -12 -17 6 -33
28 -25 115 -25 153 0 30 20 45 60 31 84 -6 9 -33 27 -62 41 -53 26 -62 39 -39
59 21 17 77 26 77 12 0 -20 44 -8 48 13 7 34 -33 43 -107 26z"/>
<path d="M3385 5966 c-89 -40 -123 -175 -57 -226 33 -27 64 -25 100 5 24 20
31 22 36 10 3 -8 15 -15 26 -15 19 0 20 6 20 99 0 93 -1 100 -24 114 -36 24
-68 28 -101 13z m53 -38 c7 -7 12 -35 12 -64 0 -40 -5 -57 -25 -78 -29 -31
-50 -33 -65 -7 -23 44 -2 127 37 150 23 13 27 13 41 -1z"/>
<path d="M4112 5963 c-76 -37 -121 -128 -88 -178 19 -29 84 -49 129 -40 42 9
77 32 77 51 0 25 -29 28 -54 5 -38 -36 -113 -19 -105 24 3 15 22 22 93 35 112
22 143 53 96 100 -25 25 -100 27 -148 3z m103 -38 c0 -16 -11 -22 -55 -32 -30
-6 -57 -10 -59 -7 -13 13 73 66 99 61 8 -1 15 -11 15 -22z"/>
<path d="M4360 5932 c0 -9 -25 -58 -55 -107 -30 -50 -55 -93 -55 -97 0 -13 41
-19 55 -8 8 7 28 36 45 64 28 50 49 67 98 81 16 5 22 2 22 -9 0 -18 23 -21 51
-6 25 14 24 36 -2 50 -19 11 -44 9 -83 -6 -11 -4 -16 0 -16 15 0 19 -26 41
-49 41 -6 0 -11 -8 -11 -18z"/>
<path d="M4795 5833 c-78 -16 -150 -65 -181 -124 -22 -43 -18 -102 9 -126 38
-36 84 -53 139 -53 78 0 122 37 84 69 -11 10 -21 9 -45 -3 -64 -34 -141 -9
-141 45 0 64 99 139 183 139 56 0 73 -17 59 -60 -9 -25 -8 -31 8 -40 39 -21
65 13 58 76 -2 22 -13 34 -43 50 -42 22 -96 33 -130 27z"/>
<path d="M5119 5714 c-8 -9 -76 -64 -151 -122 -76 -58 -138 -108 -138 -112 0
-4 8 -14 18 -24 18 -15 21 -14 63 14 75 51 180 73 179 36 0 -6 -22 -26 -48
-43 -66 -45 -106 -88 -99 -107 10 -25 52 -19 71 8 8 13 45 46 81 73 36 27 65
56 65 65 0 26 -45 50 -95 52 -25 0 -45 4 -45 8 0 4 36 32 80 63 80 56 90 71
68 93 -16 16 -33 15 -49 -4z"/>
<path d="M2491 5524 c-51 -36 -65 -122 -30 -184 41 -73 118 -92 170 -41 25 26
29 37 29 86 0 31 -7 69 -15 85 -33 64 -104 89 -154 54z m77 -47 c46 -49 66
-133 36 -157 -26 -23 -66 -1 -91 50 -27 52 -29 92 -7 114 21 22 37 20 62 -7z"/>
<path d="M2229 5470 c-24 -20 -24 -20 -4 -37 23 -20 64 -76 155 -211 50 -74
67 -92 84 -90 14 2 21 10 20 23 0 20 -189 300 -218 324 -10 9 -19 7 -37 -9z"/>
<path d="M2743 5463 c-15 -5 -17 -39 -4 -47 5 -3 12 -26 15 -51 4 -24 11 -47
16 -50 25 -16 41 95 20 136 -11 19 -23 22 -47 12z"/>
<path d="M5171 5388 c-105 -18 -142 -92 -79 -157 38 -39 66 -51 114 -51 28 0
35 4 32 18 -2 12 -16 19 -47 23 -60 8 -96 51 -72 87 6 11 26 5 89 -27 91 -46
111 -49 135 -23 22 25 21 44 -4 76 -38 48 -96 67 -168 54z m120 -59 c25 -13
24 -39 -1 -39 -28 0 -100 37 -100 51 0 13 71 5 101 -12z"/>
<path d="M2116 5341 c-18 -20 -17 -21 16 -53 19 -18 78 -88 132 -155 54 -68
101 -123 105 -123 13 0 31 24 30 40 0 16 -237 301 -255 307 -6 2 -19 -5 -28
-16z"/>
<path d="M5360 5206 c0 -8 5 -18 10 -21 26 -16 3 -35 -80 -65 -67 -24 -90 -37
-90 -50 0 -32 32 -31 127 6 l94 37 28 -27 c29 -28 61 -35 61 -12 0 7 -7 19
-15 26 -22 18 -18 37 8 44 68 18 109 -5 88 -50 -20 -45 4 -59 39 -22 28 30 25
65 -9 99 -33 33 -83 38 -154 17 -36 -11 -41 -10 -57 10 -21 25 -50 29 -50 8z"/>
<path d="M2133 5085 c-26 -18 -44 -92 -33 -140 16 -70 77 -135 127 -135 20 0
63 40 82 77 30 58 -1 165 -35 119 -10 -14 -10 -24 -3 -38 22 -41 -18 -116 -55
-102 -20 8 -20 10 -1 107 18 96 18 92 -1 111 -20 20 -53 20 -81 1z m46 -83 c0
-26 -4 -56 -8 -66 -7 -18 -9 -16 -19 14 -15 41 -15 66 -1 91 16 30 29 13 28
-39z"/>
<path d="M1903 4883 c-6 -16 18 -43 81 -88 l28 -20 -13 -73 c-7 -39 -17 -72
-22 -72 -4 0 -35 18 -68 40 -62 43 -73 44 -82 10 -6 -23 -1 -27 172 -144 90
-60 116 -74 127 -65 25 21 15 44 -37 79 -28 18 -52 38 -55 42 -6 10 16 130 26
142 5 4 36 -11 71 -34 59 -41 63 -42 76 -25 7 11 13 22 13 27 0 4 -31 29 -69
54 -38 25 -71 54 -74 65 -3 12 -14 19 -29 19 -13 0 -45 14 -71 30 -55 34 -65
36 -74 13z"/>
<path d="M5685 4879 c-22 -5 -73 -16 -112 -25 -59 -12 -73 -19 -73 -34 0 -10
5 -22 11 -25 16 -11 251 37 256 52 6 16 -15 43 -31 42 -6 -1 -29 -5 -51 -10z"/>
<path d="M5413 4814 c-9 -24 10 -49 38 -49 29 0 36 26 14 49 -21 21 -44 21
-52 0z"/>
<path d="M5657 4725 c-99 -14 -114 -22 -94 -49 12 -17 20 -17 103 -7 167 21
165 21 162 44 -4 28 -46 31 -171 12z"/>
<path d="M5469 4694 c-17 -21 0 -49 32 -49 30 0 38 33 13 52 -23 17 -29 16
-45 -3z"/>
<path d="M5640 4581 c-26 -4 -35 -11 -35 -26 0 -19 6 -20 133 -19 73 1 136 4
139 7 2 3 2 15 -2 26 -6 19 -13 21 -103 20 -53 -1 -113 -4 -132 -8z"/>
<path d="M5513 4564 c-8 -22 9 -48 36 -52 20 -3 26 6 21 38 -4 31 -47 41 -57
14z"/>
<path d="M1896 4025 c-19 -20 -20 -26 -3 -49 27 -38 95 2 71 42 -15 23 -48 27
-68 7z"/>
<path d="M5700 4026 c-6 -8 -10 -25 -8 -38 2 -19 9 -23 38 -23 31 0 35 3 38
29 5 42 -41 64 -68 32z"/>
<path d="M5527 3553 c-13 -12 -7 -19 34 -42 34 -19 40 -27 34 -45 -12 -38 -6
-61 20 -83 47 -41 95 -27 95 27 0 10 6 20 13 23 15 5 16 5 -73 57 -41 24 -84
49 -96 57 -11 7 -24 10 -27 6z m161 -146 c-7 -47 -78 -20 -78 29 0 31 20 35
53 11 19 -13 27 -26 25 -40z"/>
<path d="M1984 3493 c-36 -7 -57 -37 -49 -72 7 -31 59 -85 77 -79 18 6 11 23
-16 36 -26 13 -43 52 -32 71 12 19 63 22 100 7 41 -17 54 -40 38 -67 -17 -26
-15 -31 11 -27 28 4 35 47 12 82 -28 42 -81 61 -141 49z"/>
<path d="M5554 3342 c-38 -25 -17 -100 35 -121 52 -22 92 18 72 72 -17 44 -75
71 -107 49z m65 -38 c46 -39 38 -73 -14 -60 -30 8 -58 47 -49 70 9 23 28 20
63 -10z"/>
<path d="M2099 3315 c-3 -2 -29 -8 -59 -12 -31 -5 -55 -14 -58 -22 -4 -11 5
-12 41 -7 50 8 87 -5 87 -29 0 -20 20 -29 33 -15 9 9 7 16 -10 29 -15 13 -20
25 -16 40 5 19 -6 29 -18 16z"/>
<path d="M5490 3200 c-24 -24 -25 -41 -6 -79 13 -24 52 -51 76 -51 19 0 40 33
40 65 0 25 -8 40 -31 59 -37 31 -53 32 -79 6z m74 -40 c36 -43 20 -73 -29 -54
-19 8 -44 54 -38 72 8 22 40 13 67 -18z"/>
<path d="M2063 3190 c-15 -6 -23 -18 -23 -33 0 -28 42 -77 65 -77 22 0 19 18
-5 25 -26 8 -41 37 -30 55 7 12 17 7 48 -24 43 -41 75 -45 80 -10 2 14 -8 31
-28 48 -32 27 -67 32 -107 16z m101 -39 c10 -10 13 -22 8 -25 -10 -6 -52 21
-52 35 0 16 26 10 44 -10z"/>
<path d="M5370 3100 c-11 -21 -20 -45 -20 -52 0 -8 29 -43 65 -78 50 -50 67
-62 77 -52 9 9 6 18 -16 41 -27 28 -27 30 -12 59 9 17 16 36 16 42 0 21 -20 9
-36 -21 l-16 -32 -25 25 c-24 24 -24 26 -9 56 18 35 20 52 6 52 -5 0 -19 -18
-30 -40z"/>
<path d="M2143 3058 c-27 -13 -30 -49 -8 -68 9 -7 14 -19 11 -26 -8 -22 4 -23
57 -5 46 16 52 21 55 49 3 26 -2 33 -27 46 -34 18 -57 19 -88 4z m97 -44 c0
-24 -46 -39 -75 -26 -31 14 -32 40 -3 51 28 10 78 -6 78 -25z"/>
<path d="M2270 2942 c0 -7 -18 -19 -40 -28 -22 -9 -40 -22 -40 -30 0 -21 37
-54 60 -54 27 0 25 18 -2 22 -41 6 -34 36 11 49 36 11 43 10 61 -6 24 -21 39
-13 20 11 -12 13 -11 17 1 25 8 5 17 9 22 9 4 0 7 4 7 9 0 5 -22 8 -50 8 -33
-1 -50 -6 -50 -15z"/>
<path d="M5316 2901 c-4 -7 -1 -22 8 -34 9 -12 23 -32 32 -44 17 -24 11 -63
-10 -63 -7 0 -25 18 -42 40 -16 22 -32 40 -36 40 -18 0 -6 -35 23 -72 34 -43
64 -48 83 -13 6 11 12 22 14 25 2 2 7 -2 12 -10 15 -23 12 -60 -5 -66 -19 -8
-20 -24 -1 -24 18 0 46 38 46 61 0 17 -42 83 -88 138 -20 23 -31 30 -36 22z"/>
<path d="M2412 2858 c7 -19 38 -22 38 -4 0 10 -9 16 -21 16 -12 0 -19 -5 -17
-12z"/>
<path d="M2317 2817 c-77 -40 -60 -58 19 -20 32 15 58 32 57 38 -3 16 -16 13
-76 -18z"/>
<path d="M2420 2794 c0 -5 -25 -22 -55 -39 -34 -18 -51 -33 -45 -39 5 -5 20
-5 37 2 45 18 103 19 103 2 0 -5 -18 -19 -39 -30 -43 -21 -55 -35 -47 -49 7
-10 126 57 126 70 0 5 -14 16 -31 24 -18 10 -29 22 -25 30 2 7 -2 19 -10 25
-8 7 -14 9 -14 4z"/>
<path d="M5216 2769 c-7 -17 -16 -30 -19 -30 -4 1 -11 1 -16 1 -6 0 9 -27 31
-60 23 -32 45 -57 50 -54 13 8 9 27 -12 54 -24 31 -26 69 -3 85 9 7 13 17 9
23 -12 20 -26 13 -40 -19z"/>
<path d="M5107 2662 c-25 -28 -22 -84 6 -110 30 -28 41 -28 65 3 11 14 25 25
31 25 16 0 14 6 -15 56 -29 49 -59 58 -87 26z m57 -30 c18 -35 10 -72 -14 -72
-25 0 -45 52 -30 79 15 28 27 26 44 -7z"/>
<path d="M2472 2648 c-34 -17 -40 -57 -11 -79 25 -18 24 -26 -1 -29 -36 -5
-49 1 -52 25 -4 30 -22 35 -26 7 -4 -25 32 -55 68 -55 38 0 140 67 140 92 0
10 -6 24 -14 30 -21 17 -78 22 -104 9z m88 -23 c10 -12 6 -18 -20 -33 -36 -23
-70 -18 -70 9 0 35 66 53 90 24z"/>
<path d="M5006 2560 c-8 -19 -16 -26 -22 -20 -5 5 -14 6 -20 2 -7 -5 -1 -28
19 -70 20 -43 33 -60 40 -53 6 6 6 24 -1 53 -11 43 -7 88 8 88 4 0 15 -18 25
-40 21 -46 40 -66 49 -51 4 5 -6 34 -21 65 -32 64 -57 73 -77 26z"/>
<path d="M2680 2514 c-86 -71 -87 -72 -66 -80 11 -4 26 2 42 17 23 22 25 22
59 6 42 -20 43 -26 10 -57 -47 -44 -24 -56 29 -15 18 14 38 25 44 25 7 0 12 5
12 10 0 6 11 20 25 32 45 39 19 55 -28 18 -25 -20 -28 -20 -59 -4 -18 9 -35
18 -37 20 -3 3 11 20 29 39 52 54 8 46 -60 -11z"/>
<path d="M4875 2539 c-4 -6 -4 -13 -1 -16 8 -8 36 5 36 17 0 13 -27 13 -35 -1z"/>
<path d="M4813 2518 c20 -89 20 -88 3 -88 -8 0 -23 -11 -32 -25 -14 -22 -15
-32 -5 -65 14 -47 43 -60 73 -34 11 11 26 19 34 19 7 0 14 2 15 5 1 3 -13 51
-32 108 -21 65 -38 102 -47 102 -10 0 -13 -7 -9 -22z m42 -138 c6 -28 -8 -70
-23 -70 -17 0 -32 26 -32 55 0 58 43 69 55 15z"/>
<path d="M4897 2493 c-4 -3 -3 -11 2 -17 4 -6 16 -32 26 -58 10 -27 24 -48 31
-48 19 0 18 11 -10 75 -24 52 -35 63 -49 48z"/>
<path d="M2856 2389 c-59 -17 -85 -67 -48 -95 20 -16 96 -19 87 -4 -4 6 -16 8
-26 5 -22 -7 -49 10 -49 31 0 10 15 13 63 11 55 -2 62 0 62 17 0 26 -51 46
-89 35z m62 -30 c-2 -6 -7 -10 -11 -10 -4 1 -19 1 -33 1 -14 0 -23 4 -19 10 8
14 68 13 63 -1z"/>
<path d="M4709 2361 c-8 -11 -19 -16 -32 -13 -15 4 -18 1 -14 -14 4 -10 11
-40 18 -67 6 -26 15 -50 20 -53 15 -9 21 22 11 58 -11 39 1 78 23 78 8 0 15 7
15 15 0 21 -28 19 -41 -4z"/>
<path d="M2975 2320 c-32 -12 -47 -36 -43 -67 2 -21 9 -29 28 -31 13 -2 29
-11 35 -19 9 -12 16 -7 43 26 36 45 39 62 16 85 -17 17 -47 20 -79 6z m65 -28
c0 -25 -44 -65 -66 -60 -27 5 -28 25 0 53 30 30 66 34 66 7z"/>
<path d="M4575 2308 c-52 -27 -62 -93 -20 -126 29 -23 59 -19 80 11 16 23 20
74 7 93 -15 22 -47 33 -67 22z m35 -27 c14 -28 12 -77 -4 -90 -33 -27 -65 66
-34 97 17 17 26 15 38 -7z"/>
<path d="M3093 2253 c-22 -55 -23 -98 0 -97 20 2 127 73 127 86 0 16 -22 7
-67 -27 -25 -19 -48 -33 -50 -31 -2 2 3 21 11 41 9 21 16 44 16 51 0 27 -21
13 -37 -23z"/>
<path d="M3570 2225 c-6 -15 -24 -61 -41 -102 -20 -48 -28 -78 -22 -84 6 -6
13 -5 20 3 10 13 70 162 75 187 6 26 -22 22 -32 -4z"/>
<path d="M4410 2230 c-35 -35 -21 -120 19 -120 10 0 24 6 30 14 7 8 21 12 33
9 19 -6 20 -3 13 48 -4 30 -13 57 -19 61 -21 14 -56 8 -76 -12z m64 -26 c8
-29 -18 -78 -37 -71 -7 2 -13 18 -15 36 -6 55 40 86 52 35z"/>
<path d="M4170 2218 c0 -7 -7 -25 -14 -40 -8 -16 -11 -28 -5 -28 5 0 9 -23 9
-50 0 -37 4 -52 16 -57 20 -7 63 12 71 32 9 26 -6 30 -23 7 -24 -34 -34 -26
-34 27 0 44 3 49 25 55 14 4 25 11 25 16 0 6 -11 8 -25 4 -22 -5 -25 -3 -25
20 0 14 -4 26 -10 26 -5 0 -10 -6 -10 -12z"/>
<path d="M3237 2204 c-68 -37 -49 -108 27 -102 23 2 41 9 44 17 5 14 2 13 -43
-5 -16 -7 -49 21 -41 34 4 7 29 12 55 12 56 0 82 20 61 45 -16 19 -67 19 -103
-1z m83 -13 c0 -11 -25 -21 -51 -21 -21 0 -26 16 -6 23 21 9 57 7 57 -2z"/>
<path d="M4330 2205 c-9 -11 -16 -13 -24 -5 -21 21 -26 8 -26 -60 0 -56 3 -70
15 -70 11 0 15 11 15 43 0 48 19 82 46 82 9 0 19 6 21 13 6 17 -32 15 -47 -3z"/>
<path d="M3890 2203 c-24 -4 -27 -10 -39 -89 -7 -48 -9 -90 -5 -94 12 -11 92
4 107 20 9 9 1 10 -35 5 -52 -8 -52 -8 -39 28 7 17 20 26 46 31 20 4 33 11 29
17 -3 6 -19 7 -35 4 -24 -6 -29 -3 -29 13 0 29 27 52 60 52 16 0 32 5 35 10 6
10 -42 11 -95 3z"/>
<path d="M3366 2144 c-20 -42 -24 -60 -16 -68 8 -8 14 -6 21 6 19 34 61 78 75
78 19 0 18 -9 -6 -61 -12 -28 -16 -47 -10 -53 13 -13 20 -3 50 62 29 63 19 84
-30 65 -27 -10 -30 -9 -30 8 0 37 -26 19 -54 -37z"/>
<path d="M4080 2145 c-24 -25 -24 -25 -32 -5 -4 11 -14 20 -23 20 -19 0 -19
-4 0 -41 15 -27 14 -31 -7 -59 -28 -38 -14 -53 15 -16 l22 28 19 -21 c24 -26
41 -17 21 12 -20 29 -19 50 5 72 21 19 26 35 12 35 -5 0 -19 -11 -32 -25z"/>
<path d="M3622 2143 c-42 -81 -34 -130 20 -119 33 7 35 -2 7 -38 -17 -22 -24
-24 -41 -15 -23 12 -39 2 -18 -11 32 -21 70 -11 90 23 24 39 64 156 56 164
-11 11 -33 -17 -45 -57 -12 -42 -30 -56 -56 -46 -13 4 -13 10 0 47 8 23 15 48
15 55 0 20 -18 17 -28 -3z"/>
</g>
</svg>
